<?xml version="1.0" encoding="utf-8"?>
<!-- Generator: Adobe Illustrator 24.2.3, SVG Export Plug-In . SVG Version: 6.00 Build 0)  -->
<svg version="1.1" id="Capa_1" xmlns="http://www.w3.org/2000/svg" xmlns:xlink="http://www.w3.org/1999/xlink" x="0px" y="0px"
	 viewBox="0 0 1100 800" style="enable-background:new 0 0 1100 800;" xml:space="preserve">
<style type="text/css">
	.st0{fill:#FFFFFF;}
	.st1{fill:#1C1C1C;}
</style>
<path class="st0" d="M0,0v800h1100V0H0z M511.4,134.6c0,0.5-0.1,1.3-0.5,3.6c-0.4,2.8-1.3,8.8-3,20.6
	c-17.4,120.3-71.8,486.8-72.3,490.5c-4.6,29.4-21.6,56.2-47.9,75.6c-26.1,19.3-59.6,29.9-94.3,29.9h-51.3
	c-34.7,0-68.2-10.6-94.3-29.9c-26.3-19.4-43.3-46.3-47.9-75.6L50.2,330.2l-0.1-0.7c-0.3-1.2-0.5-2.5-0.5-4v-0.1
	c0-0.7-0.2-1.4-0.3-2.2c-0.1-0.9-0.3-1.9-0.3-3c-0.3-3.2-0.6-6.5-1-9.7c-0.3-2.4-0.5-4.7-0.8-7.1c-0.2-2.3-0.5-4.7-0.8-7l-1.9-18.1
	c0-0.6-0.1-1.9-0.2-2.8l-0.2-0.2L44,274c-0.1-1.6-0.1-3.3-0.1-4.7v-1.2l0.2-0.2c0-0.8,0-2.1,0-3.2c0-2.7,0-6,0.3-8.5
	c0.7-5.8,1.8-11.6,2.7-16.4c1-5,2-10.3,3.7-15.4c1.1-3.4,2.3-6.8,3.4-10.2c4.5-12.9,11-25.7,19.3-38.1c6.4-9.7,14.1-19.2,23.6-29.1
	c5.1-5.3,10.9-10.7,18.1-16.9c5.3-4.5,10.5-8.7,15.7-12.3c3.5-2.5,7.2-5.1,12.1-8.5c10.7-7.1,22.1-13.7,34.8-20.1
	c4-2,8.2-4,12.5-5.8c3.7-1.6,7.6-3.3,11.6-4.8c4.4-1.7,8.4-3.1,12.2-4.3c1.6-0.4,3-1,4.6-1.6l0.8-0.3c0.6-0.2,1.3-0.5,2.1-0.5
	c0.3,0,0.5-0.1,0.8-0.2c2.9-1,5.7-1.8,8.5-2.7c1.2-0.4,2.4-0.7,3.7-1.1c18.8-5.7,38.5-9.4,57.5-13l0.4-0.1c14.1-2.7,28-4.6,38.6-6
	c6.4-0.8,13.9-1.7,21.9-2.3c1.1-0.1,2.2-0.2,3.3-0.3c4.5-0.3,9.1-0.7,13.8-0.8c2.1-0.1,4.3-0.2,6.5-0.2c0.4,0,0.8,0,1-0.1l0.5-0.2
	h22.1v0.4c17.3,0.6,32.8,2.7,47.3,6.4c9.3,2.4,18.4,5.8,27.9,10.6c2.9,1.4,5.4,2.8,7.5,4.3c3,2.1,6.1,4.5,9.1,7.2
	c5.4,4.8,9.6,10,13,15.9c3.9,6.7,5.9,12.3,7.3,20.6l0,0C513.2,115.4,512.9,122.9,511.4,134.6z M1056.1,269.3c0,1.4,0,3.1-0.1,4.7
	l-0.1,1.4l-0.2,0.2c-0.1,0.9-0.2,2.2-0.2,2.8l-1.9,18.1c-0.3,2.4-0.5,4.7-0.8,7c-0.2,2.3-0.5,4.7-0.8,7.1c-0.3,3.2-0.7,6.5-1,9.7
	c-0.1,1-0.2,2-0.3,3c-0.1,0.8-0.2,1.5-0.3,2.2v0.1c0,1.5-0.3,2.9-0.5,4l-0.1,0.7L1000,649.4c-4.6,29.3-21.6,56.2-47.9,75.6
	c-26.1,19.3-59.6,29.9-94.3,29.9h-51.3c-34.7,0-68.2-10.6-94.3-29.9c-26.3-19.4-43.3-46.3-47.9-75.6c-0.5-3.7-54.9-370.2-72.3-490.5
	c-1.7-11.9-2.6-17.8-3-20.6c-0.3-2.3-0.5-3.1-0.5-3.6c-1.5-11.7-1.8-19.2-1-24.1l0,0c1.4-8.3,3.4-13.9,7.3-20.6
	c3.4-6,7.7-11.2,13-15.9c3-2.7,6.1-5.1,9.1-7.2c2.1-1.5,4.5-2.9,7.5-4.3c9.5-4.7,18.7-8.2,27.9-10.6c14.5-3.7,30-5.8,47.3-6.4v-0.4
	h22.1l0.5,0.2c0.1,0.1,0.5,0.1,1,0.1c2.2,0,4.4,0.1,6.5,0.2c4.7,0.1,9.3,0.4,13.8,0.8c1.1,0.1,2.2,0.2,3.3,0.3
	c7.9,0.6,15.5,1.5,21.9,2.3c10.6,1.4,24.6,3.3,38.6,6l0.4,0.1c19.1,3.6,38.8,7.4,57.5,13c1.2,0.4,2.4,0.7,3.7,1.1
	c2.8,0.8,5.6,1.7,8.5,2.7c0.3,0.1,0.5,0.2,0.8,0.2c0.9,0,1.6,0.3,2.1,0.5l0.8,0.3c1.5,0.6,3,1.2,4.6,1.6c3.8,1.2,7.8,2.6,12.2,4.3
	c4,1.5,7.8,3.1,11.6,4.8c4.3,1.8,8.5,3.8,12.5,5.8c12.8,6.5,24.1,13,34.8,20.1c4.9,3.3,8.7,5.9,12.1,8.5c5.1,3.6,10.4,7.8,15.7,12.3
	c7.2,6.2,13,11.5,18.1,16.9c9.5,9.9,17.2,19.4,23.6,29.1c8.3,12.5,14.8,25.3,19.3,38.1c1.1,3.3,2.3,6.8,3.4,10.2
	c1.7,5.1,2.7,10.4,3.7,15.4c1,4.8,2.1,10.6,2.7,16.4c0.3,2.5,0.3,5.8,0.3,8.5c0,1.1,0,2.4,0,3.2l0.2,0.2v0.9H1056.1z"/>
<g>
	<g>
		<path d="M857.9,757.7h-51.3c-35.3,0-69.4-10.8-95.9-30.5c-26.9-19.9-44.3-47.4-49-77.5v-0.2c-2.2-15.1-55.2-372.4-72.3-490.4
			c-1.7-11.6-2.5-17.5-3-20.4v-0.2l2.8-0.4l-2.8,0.4c-0.3-2.3-0.5-3.1-0.5-3.8c-1.5-11.9-1.8-19.5-1-24.8c1.5-8.7,3.5-14.5,7.6-21.6
			c3.5-6.2,8-11.7,13.6-16.6c3.1-2.8,6.3-5.2,9.4-7.4c2.2-1.5,4.8-3,7.8-4.5c9.7-4.8,19-8.3,28.5-10.8c14-3.6,28.8-5.7,45.2-6.4
			v-0.5h25.6l0.6,0.3c0.1,0,0.1,0,0.2,0c2.3,0,4.6,0.1,6.6,0.2c4.7,0.1,9.4,0.4,13.9,0.8l3.3,0.2c8,0.6,15.6,1.5,22,2.3
			c10.6,1.4,24.7,3.3,38.8,6l0.4,0.1c19.1,3.7,38.9,7.4,57.8,13.1c1.2,0.4,2.4,0.7,3.7,1.1c2.8,0.8,5.7,1.7,8.6,2.7l0,0
			c1.4,0,2.4,0.4,3,0.7l0.9,0.3c1.5,0.6,2.8,1.1,4.3,1.5c4,1.2,8,2.6,12.5,4.4c4,1.5,7.9,3.1,11.6,4.8c4.4,1.9,8.7,3.9,12.7,5.9
			c12.8,6.5,24.3,13.1,35.1,20.3c5,3.4,8.7,6,12.2,8.5c5.2,3.7,10.5,7.8,15.8,12.4c7.3,6.2,13.1,11.6,18.3,17
			c9.6,10,17.4,19.7,23.9,29.5c8.4,12.6,15,25.7,19.6,38.7c1.2,3.4,2.3,6.8,3.4,10.3c1.7,5.3,2.8,10.6,3.8,15.7
			c1,4.9,2.1,10.7,2.8,16.6c0.3,2.6,0.3,6,0.3,8.8c0,0.7,0,1.4,0,2.1l0.2,0.3v2.3c0,1.5,0,3.2-0.1,4.9l-0.2,2.7l-0.3,0.2
			c0,0.5-0.1,1.1-0.1,1.4v0.2l-1.9,18.1c-0.3,2.3-0.5,4.5-0.7,6.7v0.3c-0.2,2.4-0.5,4.7-0.8,7.1c-0.4,3.2-0.7,6.5-1,9.6
			c-0.1,1.1-0.2,2.2-0.4,3.2c-0.1,0.7-0.2,1.3-0.2,1.9l0,0c0,1.8-0.3,3.4-0.6,4.6l-0.1,0.6l-49.8,319.1c-4.7,30.1-22.1,57.6-49,77.5
			C927.2,746.9,893.2,757.7,857.9,757.7z M702.6,48v0.3l-2.7,0.1c-17.1,0.6-32.4,2.6-46.7,6.3c-9.1,2.3-18,5.7-27.4,10.4
			c-2.8,1.4-5.1,2.7-7.1,4.1c-2.9,2-5.9,4.4-8.8,7c-5.1,4.5-9.2,9.5-12.4,15.2c-3.7,6.4-5.6,11.7-6.9,19.7c-0.8,4.7-0.5,11.9,1,23.3
			v0.2v0.2c0,0.3,0.2,1.4,0.4,3.1v0.3c0.4,2.9,1.3,8.8,3,20.5c17.1,118,70.1,475.2,72.3,490.3v0.1c4.5,28.6,21.1,54.8,46.8,73.8
			c25.6,18.9,58.5,29.4,92.6,29.4H858c34.1,0,67-10.4,92.6-29.4c25.7-19,42.3-45.2,46.8-73.8l49.8-319.2l0.2-0.7
			c0.2-1.1,0.5-2.2,0.5-3.5v-0.3c0-0.8,0.2-1.6,0.3-2.5c0.1-0.9,0.3-1.8,0.3-2.7c0.3-3.2,0.6-6.6,1-9.8v-0.1c0.3-2.4,0.5-4.7,0.8-7
			V303c0.2-2.2,0.5-4.5,0.7-6.8l1.9-18c0-0.7,0.1-1.9,0.2-2.8l0.1-1.2l0.2-0.1V274c0.1-1.6,0.1-3.2,0.1-4.6v-0.2l-0.1-0.2v-1
			c0-0.8,0-2.1,0-3.3c0-2.6,0-5.8-0.3-8.1c-0.7-5.7-1.7-11.4-2.7-16.2c-1-5-2-10.1-3.6-15.1c-1.1-3.4-2.3-6.8-3.4-10.1
			c-4.4-12.6-10.8-25.2-18.9-37.5c-6.3-9.6-13.9-18.9-23.3-28.7c-5.1-5.3-10.7-10.6-17.9-16.7c-5.2-4.5-10.4-8.6-15.5-12.1
			c-3.5-2.5-7.2-5.1-12.1-8.4c-10.6-7-21.9-13.5-34.5-19.9c-4-2-8.1-4-12.3-5.8h-0.1c-3.7-1.6-7.4-3.3-11.3-4.7
			c-4.4-1.7-8.3-3.1-12.1-4.2c-1.7-0.5-3.3-1.1-4.8-1.7l-0.8-0.3c-0.5-0.2-0.8-0.3-1.1-0.3c-0.6,0-1.2-0.1-1.8-0.3
			c-2.8-1-5.6-1.8-8.3-2.6c-1.2-0.4-2.5-0.7-3.7-1.1c-18.6-5.6-38.2-9.3-57.2-13l-0.5-0.1c-14-2.7-27.9-4.6-38.5-6
			c-6.3-0.8-13.8-1.7-21.7-2.3l-3.3-0.3c-4.5-0.3-9.1-0.7-13.6-0.8c-2-0.1-4.3-0.2-6.4-0.2c-0.7,0-1.4,0-2.1-0.3h-19V48z"/>
	</g>
	<g>
		<path d="M293.4,757.7h-51.3c-35.3,0-69.4-10.8-95.9-30.5c-26.9-19.9-44.3-47.4-49-77.5l-49.8-319l-0.1-0.6
			c-0.3-1.2-0.6-2.8-0.6-4.6l0,0c0-0.5-0.1-1.2-0.2-1.9c-0.1-1-0.3-2.1-0.4-3.3c-0.2-3-0.6-6.3-0.9-9.4c-0.3-2.4-0.5-4.8-0.8-7.2
			v-0.1c-0.2-2.3-0.5-4.6-0.7-6.9l-1.9-18.2c0-0.3-0.1-0.9-0.1-1.5l-0.3-0.2l-0.2-2.7c-0.1-1.7-0.1-3.4-0.1-4.9V267l0.2-0.3
			c0-0.7,0-1.4,0-2.1c0-2.7,0-6.1,0.3-8.8c0.7-5.9,1.8-11.7,2.8-16.6c1-5.1,2-10.4,3.8-15.7c1.1-3.4,2.3-7,3.4-10.2
			c4.6-13.1,11.1-26.1,19.6-38.8c6.5-9.8,14.3-19.5,23.9-29.5c5.2-5.4,11-10.8,18.3-17c5.3-4.6,10.7-8.8,15.9-12.4
			c3.5-2.5,7.2-5.2,12.2-8.5c10.8-7.2,22.3-13.8,35.1-20.3c4.1-2.1,8.3-4.1,12.7-5.9c3.8-1.7,7.7-3.3,11.7-4.8
			c4.4-1.7,8.4-3.1,12.4-4.3c1.5-0.4,2.9-1,4.3-1.6l0.8-0.3c0.7-0.3,1.7-0.7,3.1-0.7l0,0c2.9-1,5.8-1.9,8.6-2.7
			c1.2-0.4,2.4-0.7,3.6-1.1c18.9-5.7,38.7-9.5,57.8-13.1l0.5-0.1c14.1-2.7,28.2-4.7,38.8-6c6.4-0.8,14-1.7,22-2.3l3.3-0.2
			c4.5-0.3,9.2-0.7,14-0.8c1.9-0.1,4.2-0.2,6.5-0.2c0.1,0,0.1,0,0.2,0l0.6-0.3h25.6v0.5c16.4,0.7,31.2,2.8,45.2,6.4
			c9.5,2.4,18.8,5.9,28.5,10.8c3,1.5,5.6,3,7.8,4.5c3.1,2.2,6.3,4.7,9.4,7.4c5.6,5,10,10.4,13.6,16.7c4.1,7,6.1,12.8,7.6,21.5v0.1
			c0.9,5.2,0.6,12.8-1,24.7c0,0.7-0.1,1.5-0.5,3.8v0.1c-0.4,2.9-1.3,8.8-3,20.5c-17.1,118-70.1,475.2-72.3,490.4v0.1
			c-4.7,30.1-22.1,57.6-49,77.5C362.8,746.9,328.7,757.7,293.4,757.7z M47.3,278.1l1.9,18c0.3,2.3,0.5,4.6,0.7,6.9v0.1
			c0.2,2.3,0.5,4.7,0.8,7v0.1c0.3,3.2,0.7,6.5,1,9.7c0.1,1,0.2,1.9,0.3,2.8c0.1,0.8,0.3,1.7,0.3,2.5v0.3c0,1.2,0.2,2.4,0.5,3.5
			l0.2,0.8L102.8,649c4.5,28.6,21.1,54.8,46.8,73.8c25.6,18.9,58.5,29.4,92.6,29.4h51.3c34.1,0,67-10.4,92.6-29.4
			c25.7-19,42.3-45.2,46.8-73.8v-0.1c2.2-15.1,55.2-372.4,72.3-490.3c1.7-11.8,2.6-17.7,3-20.6l2.8,0.3l-2.8-0.4l0,0
			c0.3-1.7,0.4-2.8,0.4-3.1v-0.2v-0.2c1.5-11.4,1.8-18.6,1-23.3V111c-1.3-7.9-3.2-13.2-6.9-19.6c-3.3-5.7-7.3-10.7-12.4-15.2
			c-2.9-2.6-5.9-5-8.8-7c-2-1.4-4.3-2.7-7.1-4.1c-9.3-4.7-18.3-8-27.4-10.4c-14.3-3.7-29.6-5.7-46.7-6.3l-2.7-0.1V48H379
			c-0.7,0.3-1.4,0.3-2.1,0.3c-2.2,0-4.4,0.1-6.3,0.2c-4.7,0.1-9.3,0.4-13.7,0.8l-3.3,0.3c-7.9,0.6-15.4,1.5-21.7,2.3
			c-10.6,1.3-24.5,3.2-38.4,6l-0.4,0.1c-19,3.6-38.6,7.4-57.3,13c-1.2,0.4-2.4,0.7-3.7,1.1c-2.7,0.8-5.5,1.7-8.3,2.6
			c-0.6,0.2-1.2,0.3-1.8,0.3c-0.3,0-0.6,0.1-1.1,0.3l-0.8,0.3c-1.6,0.6-3.1,1.3-4.9,1.7c-3.7,1.1-7.6,2.5-11.9,4.2
			c-4,1.4-7.7,3.1-11.4,4.7c-4.3,1.8-8.5,3.8-12.4,5.8c-12.7,6.4-24,12.9-34.5,20c-4.9,3.3-8.6,5.9-12,8.4
			c-5.1,3.6-10.3,7.7-15.5,12.1c-7.2,6.1-12.8,11.4-17.9,16.7c-9.4,9.8-17,19.2-23.3,28.7c-8.2,12.3-14.5,24.9-18.9,37.5
			c-1.1,3.3-2.3,6.7-3.4,10.1c-1.6,5-2.6,10.1-3.6,15.1c-1,4.8-2,10.5-2.7,16.2c-0.3,2.4-0.3,5.6-0.3,8.2c0,1.1,0,2.5,0,3.3v1
			l-0.1,0.2v0.2c0,1.4,0,3,0.1,4.6v0.1l0.2,0.1l0.1,1.2C47.2,276.2,47.3,277.5,47.3,278.1z"/>
	</g>
</g>
<g>
	<path class="st0" d="M249.4,690.2h-10c-1,0-1.5-1.1-1-1.9l27.8-40c0.2-0.3,0.6-0.5,1-0.5h10c1,0,1.5,1.1,1,1.9l-27.8,40
		C250.1,690,249.7,690.2,249.4,690.2z"/>
	<path class="st0" d="M266.2,690.2h-10c-1,0-1.5-1.1-1-1.9l27.8-40c0.2-0.3,0.6-0.5,1-0.5h10c1,0,1.5,1.1,1,1.9l-27.8,40
		C267,690,266.7,690.2,266.2,690.2z"/>
	<g>
		<path class="st0" d="M283.3,672.4l-10.9,15.7c-0.6,0.9,0,2.1,1.1,2.1h10.9c0.8,0,1.4-0.6,1.4-1.4v-15.7
			C285.8,671.8,284.1,671.3,283.3,672.4z"/>
	</g>
	<g>
		<path class="st0" d="M250,665.7l10.9-15.7c0.6-0.9,0-2.1-1.1-2.1h-10.9c-0.8,0-1.4,0.6-1.4,1.4V665
			C247.5,666.3,249.2,666.8,250,665.7z"/>
	</g>
</g>
<g>
	<g>
		<g>
			<path class="st1" d="M524.3,659c1.4-1,2.7-1.8,4-2.8c3.9-2.7,8.1-2.5,11.8,0.5c4.2,3.5,8.4,6.9,12.7,10.5
				c1.2-1.3,2.4-2.6,3.7-3.7c3.5-3.5,8.3-3.9,12.4-1c2.1,1.6,4.3,3.1,6.7,4.9c0.1-0.6,0.1-1,0.1-1.4c0-3.6,0-7.2,0-10.7
				c0-1.7,1.4-2.8,2.9-2.4c1.1,0.3,1.8,1,1.8,2c0,7.1,0.3,14.2-0.2,21.2c-0.4,7-6.8,12.1-14.5,12.2c-10.5,0.1-21.1,0.1-31.5,0
				c-8.2-0.1-14.6-5.9-14.6-13.4c-0.1-9.6-0.1-19,0-28.6c0.1-7.6,6.6-13.4,14.9-13.4c7,0,14,0,21.1,0c0.4,0,0.9,0,1.3,0.1
				c1.2,0.3,1.8,1,1.8,2.1c0,1-0.7,1.7-1.8,2c-0.5,0.1-1.1,0.1-1.5,0.1c-6.7,0-13.4,0-20.2,0c-6.6,0-10.8,3.8-10.8,9.8
				c0,3.6,0,7.2,0,10.7C524.2,658.1,524.3,658.4,524.3,659z M549.7,670.4c-4.5-3.7-8.9-7.4-13.4-11c-1.3-1-3.2-1-4.6,0
				c-2.3,1.4-4.5,3-6.7,4.6c-0.4,0.3-0.7,0.8-0.7,1.2c-0.1,3.4-0.1,6.7,0,10.1c0.1,4.2,3.6,7.7,8.1,8.6c2.3,0.4,4.6,0.5,6-1.8
				c0.4-0.6,1-1,1.5-1.6C543.1,677.1,546.3,673.8,549.7,670.4z M542.9,683.8c0.4,0.1,0.5,0.1,0.6,0.1c7.6,0,15.1,0.1,22.6-0.1
				c5.9-0.1,10.3-5,9.6-10.5c-0.1-0.4-0.4-0.8-0.7-1c-3-2.3-6.1-4.5-9.2-6.7c-1.9-1.4-4-1.2-5.7,0.5c-1.1,1-2,2.1-3.1,3.1
				C552.3,674.1,547.7,678.8,542.9,683.8z"/>
			<path class="st1" d="M574.2,642.7c0,1.2,0,2.4,0,3.4c-0.1,1.4-1,2.3-2.4,2.3c-1.3,0-2.2-0.9-2.3-2.2c0-0.5,0-1.1,0-1.7
				c0-0.5,0-1,0-1.7c-1.3,0-2.4,0-3.6,0c-1.7,0-2.7-0.9-2.6-2.1c0.1-1.2,1.1-2,2.6-2.1c1.1,0,2.3,0,3.6,0c0-0.8,0-1.4,0-2.1
				c0-2.5,0.7-3.5,2.3-3.5c1.7,0,2.4,1,2.4,3.6c0,0.6,0,1.3,0,2.1c1.3,0,2.5,0,3.7,0c1.5,0,2.6,0.9,2.6,2.1c0,1.2-1,2.1-2.6,2.1
				C576.7,642.7,575.5,642.7,574.2,642.7z"/>
			<path class="st1" d="M546.8,644.9c-0.1,2.4-2.1,4.2-4.7,4.2s-4.6-2-4.6-4.3c0-2.4,2.1-4.3,4.8-4.3
				C544.8,640.6,546.9,642.6,546.8,644.9z"/>
		</g>
	</g>
	<g>
		<path d="M518.8,564.9c0-13,0.2-25.9-0.1-38.9c-0.2-8,6.3-13,13.3-13c8.9-0.1,17.8,0,26.7,0c3.2,0,6.4-0.1,9.5,0.1
			c4.9,0.2,9,2.1,11.4,6.5c0.9,1.7,1.4,3.8,1.4,5.8c0.1,16.6,0.1,33.3,0.1,49.9c0,9.4-0.3,18.8,0.1,28.2c0.3,8.9-7,13.3-13.2,13.3
			c-8.5,0-17,0-25.4,0c-3.5,0-7,0.1-10.5,0c-5.6-0.2-10.1-2.4-12.5-7.8c-0.7-1.6-0.8-3.4-0.8-5.2C518.8,591,518.8,577.9,518.8,564.9
			z M577.3,565.2c0-13.2,0-26.4,0-39.6c0-0.7,0-1.5-0.2-2.2c-0.9-3.5-4-6-8.1-6.3c-2.2-0.2-4.5-0.1-6.7-0.1c-10.1,0-20.3-0.1-30.4,0
			c-5.9,0.1-9.1,3.6-9.1,9.5c0,14.2,0,28.3,0,42.5c0,11.8,0,23.6,0,35.4c0,3.3,1.3,5.8,4.2,7.2c1.7,0.8,3.7,1.3,5.5,1.3
			c5.8,0.2,11.5,0.1,17.3,0.1c6.2,0,12.4,0,18.6-0.1c5.5-0.1,8.9-3.6,8.9-9.1C577.3,591,577.3,578.1,577.3,565.2z"/>
		<path d="M538,570.1c2.4-2.2,4.6-4.2,6.7-6.2c1.6-1.5,2.7-1.7,3.6-0.8c1,1,0.7,2.2-1,3.7c-2.1,1.9-4.1,3.8-6.2,5.7
			c-0.1,0.1-0.2,0.2-0.5,0.7c1.2,0,2.1,0,3.1,0c1.3,0,2.1,0.6,2.2,1.9c0.1,1.2-0.8,2-2.2,2c-2.6,0-5.3,0-7.9-0.1
			c-1.7-0.1-2.3-0.8-2.2-2.5c0.2-2.4,0.4-4.9,0.6-7.3c0.1-1.3,0.8-2.1,2.1-2c1.3,0.1,1.7,1,1.7,2.2C538,568.2,538,569,538,570.1z"/>
		<path d="M561.9,553.6c-2.3,2.1-4.4,4.1-6.6,5.9c-0.5,0.5-1.4,0.9-2,0.8c-0.6,0-1.4-0.8-1.5-1.3c-0.1-0.7,0.2-1.7,0.7-2.2
			c2-2,4.2-3.9,6.6-6.1c-1,0-1.7,0-2.3,0c-1.2,0-2-0.6-2-1.8c0-1.3,0.7-1.9,1.9-2c2.5-0.2,5.1-0.3,7.6-0.4c1.5-0.1,2.3,0.9,2.2,2.3
			c-0.2,2.5-0.5,5-0.7,7.4c-0.1,1.3-0.7,2.1-2.1,2c-1.4-0.1-1.8-1-1.8-2.3C561.9,555.4,561.9,554.7,561.9,553.6z"/>
	</g>
</g>
<g>
	<path class="st0" d="M815.5,690.2h-10c-1,0-1.5-1.1-1-1.9l27.8-40c0.2-0.3,0.6-0.5,1-0.5h10c1,0,1.5,1.1,1,1.9l-27.8,40
		C816.2,690,815.8,690.2,815.5,690.2z"/>
	<path class="st0" d="M832.4,690.2h-10c-1,0-1.5-1.1-1-1.9l27.8-40c0.2-0.3,0.6-0.5,1-0.5h10c1,0,1.5,1.1,1,1.9l-27.8,40
		C833.1,690,832.8,690.2,832.4,690.2z"/>
	<g>
		<path class="st0" d="M849.5,672.4l-10.9,15.7c-0.6,0.9,0,2.1,1.1,2.1h10.9c0.8,0,1.4-0.6,1.4-1.4v-15.7
			C851.9,671.8,850.2,671.3,849.5,672.4z"/>
	</g>
	<g>
		<path class="st0" d="M816.2,665.7l10.9-15.7c0.6-0.9,0-2.1-1.1-2.1h-10.9c-0.8,0-1.4,0.6-1.4,1.4V665
			C813.7,666.3,815.4,666.8,816.2,665.7z"/>
	</g>
</g>
</svg>
