<?xml version="1.0" encoding="utf-8"?>
<!-- Generator: Adobe Illustrator 24.2.3, SVG Export Plug-In . SVG Version: 6.00 Build 0)  -->
<svg version="1.1" id="Capa_1" xmlns="http://www.w3.org/2000/svg" xmlns:xlink="http://www.w3.org/1999/xlink" x="0px" y="0px"
	 viewBox="0 0 1100 800" style="enable-background:new 0 0 1100 800;" xml:space="preserve">
<style type="text/css">
	.st0{fill:#FFFFFF;}
	.st1{fill:#1C1C1C;}
</style>
<path class="st0" d="M0,0v800h1100V0H0z M519.8,210.4L477.5,624c-8.2,80.1-71.4,140.8-146.7,140.8H229.3
	C154,764.8,90.9,704.1,82.6,624L40.3,210.4C30.8,116.8,99.1,35.1,186.9,35.1h186.2C461.1,35.1,529.5,116.8,519.8,210.4z
	 M1059.6,210.4L1017.3,624c-8.2,80.1-71.4,140.8-146.7,140.8H769.1c-75.3,0-138.4-60.7-146.7-140.8l-42.2-413.6
	C570.6,116.8,639,35.1,726.8,35.1H913C1000.9,35.1,1069.3,116.8,1059.6,210.4z"/>
<g>
	<g>
		<path class="st1" d="M870.6,767.7H769.1c-76.8,0-141.1-61.6-149.5-143.4l0,0l-42.2-413.6c-4.9-47.7,10.2-94.9,41.4-129.4
			c28.5-31.6,66.9-49,108-49H913c41.2,0,79.7,17.5,108.3,49.1c31.1,34.5,46.2,81.6,41.2,129.3l-42.3,413.6
			C1011.8,706.1,947.5,767.7,870.6,767.7z M625.2,623.8c8.1,78.8,70,138.3,143.9,138.3h101.6c74,0,135.8-59.4,143.9-138.3
			l42.3-413.6c4.8-46.1-9.8-91.6-39.8-124.9C989.5,54.7,952.5,38,912.9,38H726.7c-39.5,0-76.4,16.7-103.8,47.1
			c-30.1,33.3-44.7,78.9-39.9,125L625.2,623.8L625.2,623.8z"/>
	</g>
	<g>
		<path class="st1" d="M330.8,767.7H229.3c-76.8,0-141.1-61.6-149.5-143.4l0,0L37.5,210.7C32.7,163,47.7,115.8,78.9,81.3
			c28.5-31.6,66.9-49,108-49h186.2c41.2,0,79.7,17.5,108.3,49.1c31.1,34.5,46.2,81.6,41.2,129.3l-42.3,413.6
			C472,706.1,407.7,767.7,330.8,767.7z M85.4,623.8c8.1,78.8,70,138.3,143.9,138.3h101.6c74,0,135.8-59.4,143.9-138.3L517,210.1
			c4.8-46.1-9.8-91.6-39.8-124.9C449.7,54.7,412.8,38,373.2,38H186.9c-39.5,0-76.4,16.7-103.8,47.1C53,118.4,38.5,164,43.2,210.1
			L85.4,623.8L85.4,623.8z"/>
	</g>
</g>
<g>
	<g>
		<g>
			<path class="st1" d="M524.3,659c1.4-1,2.7-1.8,4-2.8c3.9-2.7,8.1-2.5,11.8,0.5c4.2,3.5,8.4,6.9,12.7,10.5
				c1.2-1.3,2.4-2.6,3.7-3.7c3.5-3.5,8.3-3.9,12.4-1c2.1,1.6,4.3,3.1,6.7,4.9c0.1-0.6,0.1-1,0.1-1.4c0-3.6,0-7.2,0-10.7
				c0-1.7,1.4-2.8,2.9-2.4c1.1,0.3,1.8,1,1.8,2c0,7.1,0.3,14.2-0.2,21.2c-0.4,7-6.8,12.1-14.5,12.2c-10.5,0.1-21.1,0.1-31.5,0
				c-8.2-0.1-14.6-5.9-14.6-13.4c-0.1-9.6-0.1-19,0-28.6c0.1-7.6,6.6-13.4,14.9-13.4c7,0,14,0,21.1,0c0.4,0,0.9,0,1.3,0.1
				c1.2,0.3,1.8,1,1.8,2.1c0,1-0.7,1.7-1.8,2c-0.5,0.1-1.1,0.1-1.5,0.1c-6.7,0-13.4,0-20.2,0c-6.6,0-10.8,3.8-10.8,9.8
				c0,3.6,0,7.2,0,10.7C524.2,658.1,524.3,658.4,524.3,659z M549.7,670.4c-4.5-3.7-8.9-7.4-13.4-11c-1.3-1-3.2-1-4.6,0
				c-2.3,1.4-4.5,3-6.7,4.6c-0.4,0.3-0.7,0.8-0.7,1.2c-0.1,3.4-0.1,6.7,0,10.1c0.1,4.2,3.6,7.7,8.1,8.6c2.3,0.4,4.6,0.5,6-1.8
				c0.4-0.6,1-1,1.5-1.6C543.1,677.1,546.3,673.8,549.7,670.4z M542.9,683.8c0.4,0.1,0.5,0.1,0.6,0.1c7.6,0,15.1,0.1,22.6-0.1
				c5.9-0.1,10.3-5,9.6-10.5c-0.1-0.4-0.4-0.8-0.7-1c-3-2.3-6.1-4.5-9.2-6.7c-1.9-1.4-4-1.2-5.7,0.5c-1.1,1-2,2.1-3.1,3.1
				C552.3,674.1,547.7,678.8,542.9,683.8z"/>
			<path class="st1" d="M574.2,642.7c0,1.2,0,2.4,0,3.4c-0.1,1.4-1,2.3-2.4,2.3c-1.3,0-2.2-0.9-2.3-2.2c0-0.5,0-1.1,0-1.7
				c0-0.5,0-1,0-1.7c-1.3,0-2.4,0-3.6,0c-1.7,0-2.7-0.9-2.6-2.1c0.1-1.2,1.1-2,2.6-2.1c1.1,0,2.3,0,3.6,0c0-0.8,0-1.4,0-2.1
				c0-2.5,0.7-3.5,2.3-3.5c1.7,0,2.4,1,2.4,3.6c0,0.6,0,1.3,0,2.1c1.3,0,2.5,0,3.7,0c1.5,0,2.6,0.9,2.6,2.1c0,1.2-1,2.1-2.6,2.1
				C576.7,642.7,575.5,642.7,574.2,642.7z"/>
			<path class="st1" d="M546.8,644.9c-0.1,2.4-2.1,4.2-4.7,4.2s-4.6-2-4.6-4.3c0-2.4,2.1-4.3,4.8-4.3
				C544.8,640.6,546.9,642.6,546.8,644.9z"/>
		</g>
	</g>
	<g>
		<path d="M518.8,564.9c0-13,0.2-25.9-0.1-38.9c-0.2-8,6.3-13,13.3-13c8.9-0.1,17.8,0,26.7,0c3.2,0,6.4-0.1,9.5,0.1
			c4.9,0.2,9,2.1,11.4,6.5c0.9,1.7,1.4,3.8,1.4,5.8c0.1,16.6,0.1,33.3,0.1,49.9c0,9.4-0.3,18.8,0.1,28.2c0.3,8.9-7,13.3-13.2,13.3
			c-8.5,0-17,0-25.4,0c-3.5,0-7,0.1-10.5,0c-5.6-0.2-10.1-2.4-12.5-7.8c-0.7-1.6-0.8-3.4-0.8-5.2C518.8,591,518.8,577.9,518.8,564.9
			z M577.3,565.2c0-13.2,0-26.4,0-39.6c0-0.7,0-1.5-0.2-2.2c-0.9-3.5-4-6-8.1-6.3c-2.2-0.2-4.5-0.1-6.7-0.1c-10.1,0-20.3-0.1-30.4,0
			c-5.9,0.1-9.1,3.6-9.1,9.5c0,14.2,0,28.3,0,42.5c0,11.8,0,23.6,0,35.4c0,3.3,1.3,5.8,4.2,7.2c1.7,0.8,3.7,1.3,5.5,1.3
			c5.8,0.2,11.5,0.1,17.3,0.1c6.2,0,12.4,0,18.6-0.1c5.5-0.1,8.9-3.6,8.9-9.1C577.3,591,577.3,578.1,577.3,565.2z"/>
		<path d="M538,570.1c2.4-2.2,4.6-4.2,6.7-6.2c1.6-1.5,2.7-1.7,3.6-0.8c1,1,0.7,2.2-1,3.7c-2.1,1.9-4.1,3.8-6.2,5.7
			c-0.1,0.1-0.2,0.2-0.5,0.7c1.2,0,2.1,0,3.1,0c1.3,0,2.1,0.6,2.2,1.9c0.1,1.2-0.8,2-2.2,2c-2.6,0-5.3,0-7.9-0.1
			c-1.7-0.1-2.3-0.8-2.2-2.5c0.2-2.4,0.4-4.9,0.6-7.3c0.1-1.3,0.8-2.1,2.1-2c1.3,0.1,1.7,1,1.7,2.2C538,568.2,538,569,538,570.1z"/>
		<path d="M561.9,553.6c-2.3,2.1-4.4,4.1-6.6,5.9c-0.5,0.5-1.4,0.9-2,0.8c-0.6,0-1.4-0.8-1.5-1.3c-0.1-0.7,0.2-1.7,0.7-2.2
			c2-2,4.2-3.9,6.6-6.1c-1,0-1.7,0-2.3,0c-1.2,0-2-0.6-2-1.8c0-1.3,0.7-1.9,1.9-2c2.5-0.2,5.1-0.3,7.6-0.4c1.5-0.1,2.3,0.9,2.2,2.3
			c-0.2,2.5-0.5,5-0.7,7.4c-0.1,1.3-0.7,2.1-2.1,2c-1.4-0.1-1.8-1-1.8-2.3C561.9,555.4,561.9,554.7,561.9,553.6z"/>
	</g>
</g>
<g>
	<path class="st0" d="M261.8,687.7h-10c-1,0-1.5-1.1-1-1.9l27.8-40c0.2-0.3,0.6-0.5,1-0.5h10c1,0,1.5,1.1,1,1.9l-27.8,40
		C262.5,687.5,262.1,687.7,261.8,687.7z"/>
	<path class="st0" d="M278.6,687.7h-10c-1,0-1.5-1.1-1-1.9l27.8-40c0.2-0.3,0.6-0.5,1-0.5h10c1,0,1.5,1.1,1,1.9l-27.8,40
		C279.4,687.5,279.1,687.7,278.6,687.7z"/>
	<g>
		<path class="st0" d="M295.7,669.9l-10.9,15.7c-0.6,0.9,0,2.1,1.1,2.1h10.9c0.8,0,1.4-0.6,1.4-1.4v-15.7
			C298.2,669.3,296.5,668.8,295.7,669.9z"/>
	</g>
	<g>
		<path class="st0" d="M262.4,663.2l10.9-15.7c0.6-0.9,0-2.1-1.1-2.1h-10.9c-0.8,0-1.4,0.6-1.4,1.4v15.7
			C260,663.8,261.6,664.3,262.4,663.2z"/>
	</g>
</g>
<g>
	<path class="st0" d="M802.6,687.7h-10c-1,0-1.5-1.1-1-1.9l27.8-40c0.2-0.3,0.6-0.5,1-0.5h10c1,0,1.5,1.1,1,1.9l-27.8,40
		C803.3,687.5,803,687.7,802.6,687.7z"/>
	<path class="st0" d="M819.5,687.7h-10c-1,0-1.5-1.1-1-1.9l27.8-40c0.2-0.3,0.6-0.5,1-0.5h10c1,0,1.5,1.1,1,1.9l-27.8,40
		C820.3,687.5,819.9,687.7,819.5,687.7z"/>
	<g>
		<path class="st0" d="M836.6,669.9l-10.9,15.7c-0.6,0.9,0,2.1,1.1,2.1h10.9c0.8,0,1.4-0.6,1.4-1.4v-15.7
			C839,669.3,837.4,668.8,836.6,669.9z"/>
	</g>
	<g>
		<path class="st0" d="M803.3,663.2l10.9-15.7c0.6-0.9,0-2.1-1.1-2.1h-10.9c-0.8,0-1.4,0.6-1.4,1.4v15.7
			C800.8,663.8,802.5,664.3,803.3,663.2z"/>
	</g>
</g>
</svg>
